<svg xmlns="http://www.w3.org/2000/svg" xmlns:xlink="http://www.w3.org/1999/xlink" width="970" zoomAndPan="magnify" viewBox="0 0 727.5 187.499995" height="250" preserveAspectRatio="xMidYMid meet" version="1.0"><defs><clipPath id="081bdd40cc"><path d="M 0.71875 0 L 726.285156 0 L 726.285156 187 L 0.71875 187 Z M 0.71875 0 " clip-rule="nonzero"/></clipPath></defs><g clip-path="url(#081bdd40cc)"><path fill="#ffffff" d="M 0.71875 0 L 726.78125 0 L 726.78125 187.128906 L 0.71875 187.128906 Z M 0.71875 0 " fill-opacity="1" fill-rule="nonzero"/><path fill="#ffffff" d="M 0.71875 0 L 726.78125 0 L 726.78125 187.128906 L 0.71875 187.128906 Z M 0.71875 0 " fill-opacity="1" fill-rule="nonzero"/><path fill="#e685b5" d="M 1056 -133.703125 L 1056 231.1875 C 1029.605469 222.28125 1006.921875 203.289062 991.496094 179.96875 C 980.261719 163 972.382812 143.570312 958.207031 128.96875 C 929.160156 99.03125 881.726562 96.992188 840.628906 104.300781 C 799.546875 111.605469 758.84375 126.25 717.28125 122.464844 C 649 116.234375 595.710938 62.714844 533.199219 34.566406 C 518.328125 27.871094 502.300781 22.515625 486.015625 23.5625 C 455.101562 25.570312 430.65625 49.558594 402.25 61.902344 C 311.402344 101.375 201.136719 16.984375 110.539062 57.011719 C 80.761719 70.167969 56.742188 95.800781 25.085938 103.367188 C 2.78125 108.710938 -20.671875 104.34375 -43.5 106.597656 C -45.527344 106.804688 -47.566406 107.109375 -49.605469 107.472656 L -49.605469 -133.675781 L 1056 -133.675781 Z M 1056 -133.703125 " fill-opacity="1" fill-rule="nonzero"/></g></svg>