<svg xmlns="http://www.w3.org/2000/svg" xmlns:xlink="http://www.w3.org/1999/xlink" width="1366" zoomAndPan="magnify" viewBox="0 0 1024.5 576" height="768" preserveAspectRatio="xMidYMid meet" version="1.0"><defs><clipPath id="386b13ca0e"><path d="M 0.175781 0.140625 L 1024 0.140625 L 1024 258.660156 L 0.175781 258.660156 Z M 0.175781 0.140625 " clip-rule="nonzero"/></clipPath></defs><g clip-path="url(#386b13ca0e)"><path fill="#e685b5" d="M 1140.105469 -118.464844 L 1140.105469 258.386719 C 1112.886719 249.1875 1089.496094 229.570312 1073.589844 205.488281 C 1062.007812 187.960938 1053.878906 167.894531 1039.265625 152.816406 C 1009.3125 121.894531 960.398438 119.792969 918.023438 127.335938 C 875.664062 134.882812 833.691406 150.003906 790.835938 146.097656 C 720.425781 139.664062 665.476562 84.390625 601.019531 55.320312 C 585.683594 48.40625 569.160156 42.871094 552.363281 43.953125 C 520.488281 46.03125 495.28125 70.800781 465.988281 83.550781 C 372.3125 124.316406 258.613281 37.160156 165.195312 78.5 C 134.488281 92.085938 109.71875 118.558594 77.078125 126.375 C 54.078125 131.890625 29.894531 127.382812 6.355469 129.710938 C 4.265625 129.921875 2.164062 130.238281 0.0585938 130.613281 L 0.0585938 -118.4375 L 1140.105469 -118.4375 Z M 1140.105469 -118.464844 " fill-opacity="1" fill-rule="nonzero"/></g></svg>