<svg xmlns="http://www.w3.org/2000/svg" xmlns:xlink="http://www.w3.org/1999/xlink" width="970" zoomAndPan="magnify" viewBox="0 0 727.5 187.499995" height="250" preserveAspectRatio="xMidYMid meet" version="1.0"><defs><g/><clipPath id="8bf1308791"><path d="M 0.71875 0 L 726.285156 0 L 726.285156 187 L 0.71875 187 Z M 0.71875 0 " clip-rule="nonzero"/></clipPath><clipPath id="8bb5b74ca0"><path d="M 19.4375 18.714844 L 165.390625 18.714844 L 165.390625 168.414062 L 19.4375 168.414062 Z M 19.4375 18.714844 " clip-rule="nonzero"/></clipPath></defs><g clip-path="url(#8bf1308791)"><path fill="#ffffff" d="M 0.71875 0 L 726.78125 0 L 726.78125 187.128906 L 0.71875 187.128906 Z M 0.71875 0 " fill-opacity="1" fill-rule="nonzero"/><path fill="#fffae4" d="M 0.71875 0 L 726.78125 0 L 726.78125 187.128906 L 0.71875 187.128906 Z M 0.71875 0 " fill-opacity="1" fill-rule="nonzero"/></g><g clip-path="url(#8bb5b74ca0)"><path fill="#2c1a4d" d="M 46.417969 61.171875 C 45.449219 63.566406 43.648438 64.992188 40.925781 65.425781 C 38.847656 65.757812 36.371094 66.132812 34.933594 67.4375 C 32.234375 69.886719 29.292969 70.484375 25.933594 70.421875 C 25.496094 70.417969 24.796875 70.824219 24.65625 71.203125 C 24.332031 72.066406 24.195312 73.03125 24.167969 73.957031 C 24.160156 74.308594 24.640625 74.964844 24.929688 74.984375 C 27.464844 75.152344 29.9375 75.277344 32.277344 73.722656 C 36.480469 70.933594 40.824219 68.523438 45.929688 67.484375 C 50.085938 66.636719 52.328125 63.644531 51.6875 59.375 C 51.035156 55.046875 51.707031 51.378906 54.636719 48.007812 C 56.492188 45.871094 58.070312 43.449219 59.484375 40.988281 C 60.96875 38.40625 61.054688 35.582031 59.800781 32.816406 C 59.628906 32.433594 59.183594 31.972656 58.804688 31.917969 C 57.382812 31.699219 56.097656 33.167969 56.273438 34.613281 C 56.386719 35.535156 56.75 36.667969 56.375 37.367188 C 54.605469 40.664062 52.953125 44.121094 50.605469 46.984375 C 48.839844 49.136719 47.082031 51.039062 46.882812 53.925781 C 46.804688 55.03125 46.765625 56.140625 46.707031 57.246094 M 134.921875 148.84375 C 134.917969 148.671875 134.917969 148.5 134.914062 148.328125 C 134.203125 148.128906 133.488281 147.757812 132.777344 147.761719 C 131.359375 147.773438 129.9375 147.9375 128.535156 148.132812 C 125.800781 148.519531 123.082031 148.992188 120.351562 149.390625 C 113.746094 150.359375 107.417969 148.984375 101.449219 146.394531 C 94.066406 143.191406 86.835938 139.605469 79.664062 135.9375 C 72.214844 132.128906 64.292969 130.128906 56.125 128.691406 C 51.4375 127.863281 46.832031 126.699219 42.03125 126.609375 C 38.796875 126.550781 35.671875 126.863281 32.273438 127.886719 C 32.945312 129.324219 33.5 130.625 34.171875 131.863281 C 34.3125 132.132812 34.898438 132.308594 35.261719 132.28125 C 38.730469 132.039062 42.191406 131.597656 45.664062 131.496094 C 50.078125 131.371094 54.496094 131.488281 58.910156 131.539062 C 62.335938 131.582031 65.71875 131.761719 68.753906 133.730469 C 69.753906 134.378906 71.003906 134.648438 72.140625 135.078125 C 75.496094 136.347656 78.929688 137.457031 82.191406 138.929688 C 84.8125 140.113281 87.191406 141.824219 89.757812 143.148438 C 92.738281 144.6875 95.78125 146.121094 98.84375 147.496094 C 104.792969 150.171875 110.675781 152.824219 117.546875 152.339844 C 122.601562 151.984375 127.539062 151.257812 132.425781 150.054688 C 133.300781 149.835938 134.089844 149.257812 134.921875 148.84375 Z M 53.808594 34.152344 C 44.058594 39.558594 36.082031 46.355469 30.992188 56.164062 C 28.898438 60.199219 26.917969 64.296875 25.605469 68.886719 C 28.289062 69.058594 30.65625 69.132812 32.421875 67.457031 C 34.734375 65.269531 37.417969 64.308594 40.492188 64.046875 C 43.371094 63.800781 45.074219 61.867188 45.09375 58.964844 C 45.101562 57.632812 45.039062 56.292969 45.160156 54.96875 C 45.4375 51.855469 45.945312 48.972656 48.6875 46.71875 C 51.390625 44.496094 53.1875 41.402344 54.050781 37.941406 C 54.300781 36.945312 53.933594 35.792969 53.808594 34.152344 Z M 92.878906 34.796875 C 91.015625 38.136719 89.214844 41.511719 87.464844 44.914062 C 85.640625 48.457031 86.871094 51.191406 90.679688 52.292969 C 92.371094 52.78125 94.035156 53.386719 95.738281 53.820312 C 98.734375 54.582031 101.71875 55.53125 104.769531 55.902344 C 110.917969 56.648438 116.9375 55.515625 122.789062 53.679688 C 129.699219 51.507812 135.925781 47.863281 142.132812 44.199219 C 144.320312 42.910156 144.320312 42.914062 142.527344 40.949219 C 142.492188 40.910156 142.457031 40.863281 142.421875 40.820312 C 141.222656 39.578125 140.445312 39.570312 139.023438 40.59375 C 136.734375 42.242188 134.546875 44.105469 132.054688 45.359375 C 128.722656 47.035156 125.136719 48.207031 121.664062 49.605469 C 118.554688 50.859375 115.3125 51.429688 112.082031 50.492188 C 108.328125 49.402344 104.722656 47.792969 100.972656 46.6875 C 96.460938 45.355469 96.304688 39.972656 98.238281 36.960938 C 100.8125 32.949219 104.496094 30.023438 108.375 27.34375 C 109.980469 26.234375 111.558594 25.085938 113.273438 23.867188 C 110.675781 22.339844 107.417969 22.414062 105.257812 23.574219 C 101.421875 25.640625 98.601562 28.875 95.546875 31.835938 M 115.144531 49.214844 C 117.210938 48.648438 119.492188 48.0625 121.746094 47.378906 C 122.957031 47.015625 124.097656 46.410156 125.308594 46.035156 C 129.863281 44.617188 133.679688 41.855469 137.632812 39.339844 C 138.667969 38.683594 138.558594 37.960938 137.753906 37.175781 C 136.960938 36.40625 136.277344 35.511719 135.414062 34.835938 C 133.042969 32.972656 130.777344 30.867188 128.148438 29.46875 C 124.800781 27.6875 121.148438 26.460938 117.585938 25.101562 C 116.953125 24.859375 115.933594 24.84375 115.417969 25.199219 C 111.503906 27.902344 107.566406 30.59375 103.867188 33.570312 C 102.234375 34.886719 100.945312 36.746094 99.832031 38.5625 C 98.320312 41.027344 99.546875 43.875 102.277344 44.816406 C 104.679688 45.644531 107.089844 46.453125 109.492188 47.273438 C 111.257812 47.875 113.015625 48.484375 115.144531 49.214844 Z M 95.015625 21.179688 C 93.898438 21.699219 92.859375 21.988281 92.0625 22.601562 C 91.132812 23.3125 90.484375 24.386719 89.59375 25.160156 C 87.796875 26.722656 85.675781 27.980469 84.121094 29.742188 C 80.664062 33.664062 77.0625 37.492188 74.503906 42.136719 C 71.824219 47 72.164062 54.21875 77.34375 58.46875 C 81.796875 62.125 87.09375 63.332031 92.4375 64.308594 C 96.824219 65.113281 101.335938 65.554688 105.796875 65.570312 C 110.390625 65.585938 114.976562 65.796875 119.621094 64.832031 C 125.371094 63.636719 130.859375 61.890625 136.03125 59.273438 C 139.648438 57.441406 142.945312 54.976562 146.371094 52.773438 C 147.253906 52.207031 148.171875 51.640625 148.902344 50.902344 C 149.25 50.546875 149.488281 49.484375 149.265625 49.269531 C 148.097656 48.132812 147.941406 45.832031 145.933594 45.796875 C 144.785156 45.777344 143.574219 46.449219 142.484375 47 C 137.398438 49.566406 132.453125 52.441406 127.246094 54.71875 C 124.042969 56.117188 120.476562 56.691406 117.050781 57.546875 C 112.605469 58.65625 108.042969 59.296875 103.542969 58.363281 C 98.570312 57.332031 93.644531 55.960938 88.8125 54.390625 C 84.792969 53.078125 83.878906 51.167969 84.335938 47.003906 C 84.78125 42.988281 87.136719 39.835938 89.046875 36.492188 C 89.941406 34.925781 90.898438 33.371094 92.03125 31.972656 C 93.574219 30.0625 95.117188 28.164062 97.195312 26.699219 C 98.925781 25.480469 100.3125 23.777344 102.070312 22.078125 C 100.839844 21.875 99.621094 21.652344 98.398438 21.484375 M 86.652344 165.125 C 87.539062 165.179688 88.261719 165.195312 88.976562 165.28125 C 97.628906 166.328125 102.777344 166.828125 110.398438 162.945312 C 111.378906 162.449219 113.191406 162.214844 115.667969 160.550781 C 115.953125 160.359375 116.265625 160.210938 116.589844 160.101562 C 116.976562 159.96875 117.074219 159.9375 117.222656 159.882812 C 117.871094 159.65625 118.511719 159.40625 119.148438 159.148438 C 121.644531 158.152344 124.429688 157.878906 126.523438 155.882812 C 127.5625 154.886719 128.875 154.175781 130.0625 153.332031 C 129.617188 153.117188 129.304688 153.1875 128.988281 153.222656 C 124.277344 153.738281 119.582031 154.476562 114.859375 154.6875 C 110.925781 154.863281 107.085938 154.027344 103.53125 152.058594 C 101.808594 151.105469 99.855469 150.582031 98.046875 149.765625 C 95.136719 148.457031 92.226562 147.128906 89.375 145.695312 C 86.976562 144.488281 84.65625 143.121094 82.28125 141.8125 C 81.730469 141.582031 82.066406 141.582031 81.066406 141.246094 C 80.398438 140.914062 80.617188 141.105469 79.863281 140.730469 C 77.832031 139.722656 75.730469 138.847656 73.621094 138.007812 C 70.542969 136.78125 67.433594 135.628906 64.335938 134.453125 C 63.925781 134.296875 63.511719 134.097656 63.085938 134.054688 C 57.535156 133.492188 52 132.636719 46.390625 133.316406 C 43.488281 133.667969 40.566406 133.898438 37.664062 134.242188 C 37.171875 134.300781 36.71875 134.664062 36.246094 134.882812 C 36.609375 135.324219 36.9375 135.796875 37.34375 136.191406 C 37.894531 136.726562 38.398438 137.574219 39.066406 138.242188 C 39.730469 139.246094 42.121094 142.238281 43.949219 144.273438 C 48.335938 149.167969 53.0625 153.660156 59.234375 156.234375 C 63.726562 158.109375 68.179688 160.230469 72.855469 161.453125 M 144.347656 140.394531 C 142.894531 140.210938 141.964844 139.945312 141.054688 140 C 136.871094 140.253906 132.726562 139.777344 128.738281 138.722656 C 123.835938 137.421875 118.992188 135.8125 114.261719 133.976562 C 107 131.15625 100.242188 127.28125 94.0625 122.566406 C 88.828125 118.570312 83.875 114.1875 78.933594 109.824219 C 73.890625 105.375 68.167969 102.136719 61.742188 100.453125 C 58.71875 99.660156 55.375 100.054688 52.175781 99.996094 C 42.902344 99.824219 34.191406 102.144531 25.808594 105.960938 C 24.671875 106.476562 24.292969 107.082031 24.699219 108.269531 C 25.449219 110.460938 26.117188 112.675781 26.855469 114.871094 C 27.738281 117.492188 28.753906 120.078125 29.53125 122.730469 C 30.082031 124.609375 31.433594 124.730469 32.90625 124.582031 C 39.316406 123.933594 45.664062 124.015625 51.988281 125.507812 C 56.503906 126.574219 61.117188 127.230469 65.652344 128.21875 C 69.710938 129.105469 73.65625 130.320312 77.355469 132.339844 C 79.871094 133.710938 82.644531 134.601562 85.265625 135.792969 C 88.734375 137.371094 92.140625 139.078125 95.613281 140.644531 C 99.878906 142.566406 104.074219 144.722656 108.496094 146.183594 C 113.847656 147.953125 119.425781 147.347656 124.855469 146.1875 C 128.679688 145.371094 132.445312 144.785156 136.347656 145.539062 C 137.210938 145.707031 138.410156 145.710938 139.035156 145.238281 C 140.796875 143.894531 142.339844 142.269531 144.347656 140.394531 Z M 160.851562 94 C 158.265625 96.035156 155.746094 98.167969 153.078125 100.089844 C 149.820312 102.441406 146.78125 105.175781 142.851562 106.460938 C 140.328125 107.285156 137.875 108.429688 135.296875 108.914062 C 132.113281 109.515625 128.835938 109.6875 125.589844 109.839844 C 122.941406 109.960938 120.242188 110.039062 117.632812 109.683594 C 113.183594 109.074219 109.304688 106.992188 105.476562 104.648438 C 100.722656 101.730469 96.472656 98.359375 92.59375 94.3125 C 87.101562 88.585938 80.300781 84.738281 72.386719 83.679688 C 68.519531 83.164062 64.480469 83.84375 60.527344 84.121094 C 59.003906 84.226562 57.449219 84.546875 56.007812 85.054688 C 51.570312 86.625 47.160156 88.28125 42.777344 90.003906 C 35.902344 92.703125 29.8125 96.714844 24.171875 101.4375 C 23.089844 102.34375 23.621094 103.523438 23.960938 104.535156 C 24.355469 105.726562 25.292969 105.027344 25.914062 104.792969 C 27.78125 104.089844 29.582031 103.214844 31.441406 102.488281 C 39.5 99.332031 47.960938 98.722656 56.488281 98.75 C 59.117188 98.757812 61.8125 99 64.355469 99.628906 C 66.40625 100.136719 68.390625 101.199219 70.199219 102.339844 C 73.691406 104.535156 77.183594 106.78125 80.414062 109.335938 C 83.835938 112.035156 86.835938 115.269531 90.242188 117.992188 C 93.515625 120.609375 97.027344 122.941406 100.519531 125.269531 C 106.757812 129.421875 113.390625 132.773438 120.582031 134.996094 C 125.519531 136.523438 130.496094 137.816406 135.636719 138.351562 C 138.714844 138.671875 141.808594 138.84375 144.894531 139.058594 C 145.132812 139.074219 145.453125 138.984375 145.617188 138.820312 C 146.386719 138.046875 147.183594 137.285156 147.84375 136.421875 C 149.230469 134.609375 150.566406 132.761719 151.859375 130.882812 C 153.0625 129.132812 154.417969 127.429688 155.289062 125.515625 C 156.304688 123.285156 156.859375 120.84375 157.628906 118.496094 C 158.628906 115.460938 160.007812 112.496094 160.570312 109.382812 C 161.546875 104.007812 162.015625 98.542969 162.699219 93.113281 M 77.550781 32.460938 C 79.96875 29.667969 82.742188 27.191406 85.335938 24.554688 C 85.898438 23.984375 86.332031 23.292969 86.949219 22.5 C 86.742188 22.339844 86.511719 22.015625 86.324219 22.035156 C 83.980469 22.300781 81.609375 22.457031 79.320312 22.964844 C 76.976562 23.488281 74.757812 24.585938 72.40625 25.050781 C 68.609375 25.792969 65.4375 27.726562 62.265625 29.746094 C 61.464844 30.261719 61.269531 30.859375 61.519531 31.78125 C 61.933594 33.324219 62.53125 34.910156 62.507812 36.46875 C 62.429688 41.179688 59.941406 44.925781 56.835938 48.136719 C 54.070312 50.996094 52.800781 54.09375 53.359375 58.046875 C 54.207031 64.054688 51.171875 68.183594 45.203125 69.277344 C 40.824219 70.078125 37.152344 72.394531 33.589844 74.832031 C 32.246094 75.75 30.972656 76.46875 29.375 76.511719 C 27.511719 76.5625 25.644531 76.523438 23.605469 76.523438 C 22.960938 83.828125 20.777344 90.847656 23.070312 98.300781 C 23.875 97.828125 24.496094 97.503906 25.070312 97.113281 C 30.019531 93.75 34.929688 90.328125 40.539062 88.105469 C 48.402344 84.992188 56.035156 81.132812 64.769531 80.957031 C 66.921875 80.914062 69.082031 80.359375 71.203125 80.519531 C 72.972656 80.65625 74.671875 81.5625 76.429688 82.011719 C 83.621094 83.84375 89.722656 87.492188 94.742188 92.941406 C 97.523438 95.960938 100.539062 98.679688 104.085938 100.773438 C 105.9375 101.863281 107.707031 103.109375 109.621094 104.074219 C 111.476562 105.011719 113.410156 106.015625 115.421875 106.390625 C 118.382812 106.945312 121.445312 107.101562 124.46875 107.175781 C 129.351562 107.300781 134.222656 107.136719 138.746094 104.886719 C 138.9375 104.789062 139.195312 104.824219 139.386719 104.726562 C 142.339844 103.257812 145.546875 102.132812 148.183594 100.222656 C 152.964844 96.757812 157.429688 92.839844 161.976562 89.054688 C 162.371094 88.726562 162.675781 87.9375 162.585938 87.4375 C 161.886719 83.46875 161.121094 79.511719 160.296875 75.566406 C 158.972656 69.230469 157.125 63.0625 154.214844 57.253906 C 153.457031 55.746094 152.539062 54.316406 151.757812 52.957031 C 150.5 53.605469 149.457031 54.074219 148.476562 54.660156 C 145.023438 56.71875 141.636719 58.890625 138.140625 60.871094 C 135.59375 62.316406 133.015625 63.816406 130.273438 64.773438 C 126.570312 66.070312 122.746094 67.179688 118.882812 67.789062 C 115.207031 68.371094 111.414062 68.371094 107.671875 68.324219 C 104.46875 68.28125 101.25 67.941406 98.070312 67.507812 C 93.308594 66.859375 88.515625 66.246094 83.847656 65.144531 C 81.65625 64.625 79.773438 62.894531 77.667969 61.894531 C 72.554688 59.46875 69.128906 53.160156 70.167969 46.992188 C 70.429688 45.453125 70.75 43.886719 71.359375 42.445312 M 21.167969 104.539062 C 20.625 101.484375 19.722656 98.457031 19.546875 95.386719 C 19.324219 91.585938 19.449219 87.722656 19.863281 83.933594 C 20.332031 79.664062 20.867188 75.3125 22.144531 71.242188 C 23.808594 65.929688 26.042969 60.765625 28.394531 55.710938 C 29.839844 52.605469 31.839844 49.730469 33.816406 46.910156 C 36.25 43.433594 38.878906 40.089844 41.511719 36.757812 C 41.992188 36.152344 42.847656 35.785156 43.59375 35.457031 C 46.417969 34.210938 49.292969 33.085938 52.101562 31.800781 C 53.59375 31.117188 54.890625 29.859375 56.429688 29.460938 C 59.527344 28.664062 61.761719 26.441406 64.488281 25.136719 C 67.75 23.574219 71.332031 22.675781 74.78125 21.507812 C 76.285156 21 77.789062 20.46875 79.328125 20.078125 C 80.84375 19.691406 82.398438 19.429688 83.949219 19.195312 C 84.273438 19.148438 84.398438 19.070312 84.839844 19.007812 C 85.023438 18.980469 85.214844 19.035156 85.402344 19.003906 C 87.066406 18.738281 86.183594 19.050781 88.167969 18.734375 C 91.429688 18.734375 94.539062 18.785156 97.648438 18.722656 C 103.472656 18.605469 109.1875 19.53125 114.835938 20.714844 C 117.070312 21.183594 119.074219 22.6875 121.226562 23.625 C 124.207031 24.925781 127.273438 26.03125 130.203125 27.429688 C 131.664062 28.128906 132.949219 29.242188 134.230469 30.269531 C 141.488281 36.082031 148.5625 42.175781 153.390625 50.210938 C 156.21875 54.921875 158.375 60.121094 160.195312 65.324219 C 162.160156 70.945312 163.480469 76.804688 164.875 82.609375 C 165.367188 84.671875 165.429688 86.890625 165.371094 89.027344 C 165.160156 96.300781 164.773438 103.5625 162.902344 110.648438 C 162.394531 112.574219 161.699219 114.449219 161.21875 116.382812 C 160.824219 117.96875 160.75 119.640625 160.3125 121.214844 C 159.460938 124.300781 157.863281 127.03125 156.066406 129.675781 C 154.285156 132.304688 152.703125 135.070312 150.949219 137.722656 C 150.332031 138.65625 149.519531 139.480469 148.710938 140.265625 C 146.300781 142.589844 143.460938 144.585938 141.519531 147.242188 C 139.3125 150.257812 136.054688 151.726562 133.457031 154.09375 C 130.003906 157.238281 125.863281 159.320312 121.980469 161.792969 C 120.332031 162.84375 118.277344 163.234375 116.546875 164.179688 C 112.878906 166.195312 108.730469 166.5 104.8125 167.441406 C 100.859375 168.390625 96.628906 168.261719 92.515625 168.398438 C 90.207031 168.476562 87.886719 168.285156 85.570312 168.113281 C 85.132812 168.078125 84.695312 168.007812 84.285156 167.855469 C 83.335938 167.511719 82.71875 167.675781 81.066406 167.285156 C 80.761719 167.214844 79.972656 166.855469 79.671875 166.769531 C 77.664062 166.179688 76.734375 166.25 76.191406 165.972656 C 72.378906 164.941406 68.609375 163.691406 64.75 162.882812 C 58.648438 161.597656 54.558594 157.304688 50.121094 153.519531 C 47.636719 151.398438 45.164062 149.230469 42.945312 146.839844 C 39.222656 142.828125 35.648438 138.671875 32.144531 134.460938 C 31.386719 133.550781 31.261719 132.136719 30.738281 131 C 29.386719 128.0625 27.78125 125.226562 26.636719 122.214844 C 25.023438 117.957031 23.730469 113.574219 22.300781 109.246094 " fill-opacity="1" fill-rule="nonzero"/></g><g fill="#2c1a4d" fill-opacity="1"><g transform="translate(214.754625, 109.281096)"><g><path d="M 36.398438 -7.667969 C 36.148438 -7.355469 35.769531 -7.105469 35.328125 -7.105469 C 34.953125 -7.105469 34.261719 -7.292969 34.074219 -8.675781 L 32.625 -20.429688 C 31.558594 -28.855469 25.398438 -31.179688 17.097656 -31.179688 C 11.503906 -31.179688 6.789062 -29.859375 4.148438 -27.785156 C 1.382812 -25.710938 4.527344 -23.953125 4.527344 -23.953125 C 7.105469 -25.835938 9.429688 -26.589844 12.320312 -26.589844 C 15.777344 -26.589844 18.042969 -25.144531 18.480469 -21.8125 L 18.796875 -19.171875 C 17.289062 -19.550781 15.402344 -19.867188 12.574219 -19.867188 C 5.59375 -19.867188 0.941406 -15.90625 0.941406 -9.996094 C 0.941406 -4.335938 4.148438 1.195312 12.320312 1.195312 C 15.589844 1.195312 19.171875 -0.441406 20.808594 -5.027344 C 22.191406 0.125 25.898438 1.195312 29.796875 1.195312 C 35.328125 1.195312 38.660156 -2.074219 38.660156 -5.027344 C 38.660156 -7.796875 36.398438 -7.667969 36.398438 -7.667969 Z M 17.476562 -7.542969 C 14.898438 -7.542969 13.453125 -9.996094 13.453125 -12.761719 C 13.453125 -14.960938 14.207031 -15.84375 16.34375 -15.84375 C 17.097656 -15.84375 18.230469 -15.589844 19.300781 -15.214844 L 19.738281 -11.820312 C 19.800781 -11.441406 19.800781 -11.128906 19.800781 -10.75 C 19.800781 -8.800781 18.984375 -7.542969 17.476562 -7.542969 Z M 17.476562 -7.542969 "/></g></g></g><g fill="#2c1a4d" fill-opacity="1"><g transform="translate(254.044956, 109.281096)"><g><path d="M 13.390625 1.257812 C 16.910156 1.257812 20.746094 0.3125 24.265625 -3.269531 C 28.289062 -7.355469 25.398438 -9.554688 24.832031 -9.050781 C 22.066406 -6.539062 18.167969 -5.28125 18.167969 -10.371094 L 18.167969 -23.824219 C 18.167969 -25.835938 18.546875 -26.527344 19.800781 -26.527344 L 24.894531 -26.527344 C 27.03125 -26.527344 26.214844 -29.921875 25.523438 -29.921875 L 19.867188 -29.921875 C 18.796875 -29.921875 18.042969 -30.113281 18.167969 -31.496094 C 18.355469 -33.570312 18.480469 -35.769531 18.417969 -40.109375 C 18.417969 -40.484375 17.980469 -40.671875 17.351562 -40.671875 C 15.90625 -40.671875 14.835938 -39.917969 14.019531 -38.660156 C 10.433594 -33.003906 6.222656 -30.613281 2.765625 -30.050781 C 0.1875 -29.609375 0.378906 -26.527344 1.132812 -26.527344 L 3.015625 -26.527344 C 4.335938 -26.527344 4.335938 -25.523438 4.335938 -23.261719 L 4.335938 -9.050781 C 4.335938 -2.953125 7.605469 1.257812 13.390625 1.257812 Z M 13.390625 1.257812 "/></g></g></g><g fill="#2c1a4d" fill-opacity="1"><g transform="translate(280.510934, 109.281096)"><g><path d="M 44.886719 -7.667969 C 44.632812 -7.355469 44.257812 -7.105469 43.816406 -7.105469 C 43.441406 -7.105469 43 -7.292969 42.8125 -8.738281 L 41.617188 -22.570312 C 41.050781 -28.980469 35.957031 -31.304688 31.746094 -31.304688 C 25.523438 -31.304688 21.625 -27.722656 20.304688 -23.886719 C 20.558594 -33.316406 21.25 -41.113281 21.625 -44.382812 C 21.875 -46.582031 19.363281 -46.332031 19.363281 -46.332031 C 15.527344 -43.0625 10.308594 -40.546875 2.890625 -39.917969 C 2.828125 -39.917969 1.507812 -36.902344 4.148438 -35.894531 C 5.28125 -35.457031 6.160156 -34.574219 6.160156 -27.597656 L 6.414062 -10.371094 C 6.414062 -5.785156 5.847656 -3.519531 3.644531 -3.332031 C 0.566406 -3.082031 1.070312 0.1875 1.761719 0.125 C 9.304688 -0.0625 18.417969 -0.1875 24.644531 0.125 C 25.523438 0.1875 26.089844 -3.015625 23.070312 -3.269531 C 20.871094 -3.457031 20.242188 -5.847656 20.242188 -10.308594 L 20.242188 -12.636719 C 20.242188 -17.664062 22.003906 -23.132812 25.019531 -23.132812 C 26.089844 -23.132812 27.785156 -22.441406 27.976562 -20.054688 L 29.167969 -7.230469 C 29.734375 -0.1875 33.882812 1.195312 38.285156 1.195312 C 43.816406 1.195312 47.148438 -2.074219 47.148438 -5.027344 C 47.148438 -7.796875 44.886719 -7.667969 44.886719 -7.667969 Z M 44.886719 -7.667969 "/></g></g></g><g fill="#2c1a4d" fill-opacity="1"><g transform="translate(327.282135, 109.281096)"><g><path d="M 31.117188 -8.171875 C 29.230469 -7.105469 27.410156 -6.664062 25.585938 -6.789062 C 22.882812 -6.851562 20.367188 -8.109375 18.230469 -9.996094 C 29.921875 -10.5625 34.074219 -15.96875 34.074219 -21.121094 C 34.074219 -26.90625 28.039062 -31.179688 19.488281 -31.179688 C 7.667969 -31.179688 1.257812 -22.632812 1.257812 -14.394531 C 1.257812 -4.652344 9.050781 1.257812 17.980469 1.257812 C 23.261719 1.257812 28.226562 -0.503906 30.929688 -3.015625 C 34.074219 -5.910156 32.125 -8.738281 31.117188 -8.171875 Z M 14.523438 -26.96875 C 16.910156 -26.96875 20.242188 -21.75 20.242188 -16.785156 C 20.242188 -14.835938 19.738281 -13.265625 15.589844 -13.074219 C 13.453125 -16.15625 12.195312 -19.929688 12.195312 -23.636719 C 12.195312 -25.523438 12.636719 -26.96875 14.523438 -26.96875 Z M 14.523438 -26.96875 "/></g></g></g><g fill="#2c1a4d" fill-opacity="1"><g transform="translate(361.669034, 109.281096)"><g><path d="M 44.886719 -7.667969 C 44.632812 -7.355469 44.257812 -7.105469 43.816406 -7.105469 C 43.441406 -7.105469 43 -7.292969 42.8125 -8.738281 L 41.617188 -22.570312 C 41.050781 -28.980469 35.957031 -31.304688 31.746094 -31.304688 C 25.648438 -31.304688 21.8125 -27.847656 20.429688 -24.203125 C 20.492188 -25.835938 20.621094 -27.722656 20.808594 -30.175781 C 20.933594 -31.496094 18.292969 -31.304688 18.292969 -31.304688 C 14.710938 -28.601562 10.121094 -27.15625 2.515625 -26.027344 C 2.390625 -26.027344 1.382812 -23.195312 3.519531 -22.253906 C 5.972656 -21.183594 6.414062 -19.046875 6.414062 -16.972656 L 6.414062 -10.371094 C 6.414062 -5.785156 5.847656 -3.519531 3.644531 -3.332031 C 0.566406 -3.082031 1.070312 0.1875 1.761719 0.125 C 9.304688 -0.0625 18.417969 -0.1875 24.644531 0.125 C 25.523438 0.1875 26.089844 -3.015625 23.070312 -3.269531 C 20.871094 -3.457031 20.242188 -5.847656 20.242188 -10.308594 L 20.242188 -12.636719 C 20.242188 -17.664062 22.003906 -23.132812 25.019531 -23.132812 C 26.089844 -23.132812 27.785156 -22.441406 27.976562 -20.054688 L 29.167969 -7.230469 C 29.734375 -0.1875 33.882812 1.195312 38.285156 1.195312 C 43.816406 1.195312 47.148438 -2.074219 47.148438 -5.027344 C 47.148438 -7.796875 44.886719 -7.667969 44.886719 -7.667969 Z M 44.886719 -7.667969 "/></g></g></g><g fill="#2c1a4d" fill-opacity="1"><g transform="translate(409.446076, 109.281096)"><g><path d="M 36.398438 -7.667969 C 36.148438 -7.355469 35.769531 -7.105469 35.328125 -7.105469 C 34.953125 -7.105469 34.261719 -7.292969 34.074219 -8.675781 L 32.625 -20.429688 C 31.558594 -28.855469 25.398438 -31.179688 17.097656 -31.179688 C 11.503906 -31.179688 6.789062 -29.859375 4.148438 -27.785156 C 1.382812 -25.710938 4.527344 -23.953125 4.527344 -23.953125 C 7.105469 -25.835938 9.429688 -26.589844 12.320312 -26.589844 C 15.777344 -26.589844 18.042969 -25.144531 18.480469 -21.8125 L 18.796875 -19.171875 C 17.289062 -19.550781 15.402344 -19.867188 12.574219 -19.867188 C 5.59375 -19.867188 0.941406 -15.90625 0.941406 -9.996094 C 0.941406 -4.335938 4.148438 1.195312 12.320312 1.195312 C 15.589844 1.195312 19.171875 -0.441406 20.808594 -5.027344 C 22.191406 0.125 25.898438 1.195312 29.796875 1.195312 C 35.328125 1.195312 38.660156 -2.074219 38.660156 -5.027344 C 38.660156 -7.796875 36.398438 -7.667969 36.398438 -7.667969 Z M 17.476562 -7.542969 C 14.898438 -7.542969 13.453125 -9.996094 13.453125 -12.761719 C 13.453125 -14.960938 14.207031 -15.84375 16.34375 -15.84375 C 17.097656 -15.84375 18.230469 -15.589844 19.300781 -15.214844 L 19.738281 -11.820312 C 19.800781 -11.441406 19.800781 -11.128906 19.800781 -10.75 C 19.800781 -8.800781 18.984375 -7.542969 17.476562 -7.542969 Z M 17.476562 -7.542969 "/></g></g></g><g fill="#2c1a4d" fill-opacity="1"><g transform="translate(448.736407, 109.281096)"><g><path d="M 0.753906 -4.335938 C -0.25 -1.699219 8.800781 1.257812 14.835938 1.257812 C 24.203125 1.257812 30.679688 -1.949219 30.679688 -8.925781 C 30.679688 -13.453125 26.402344 -17.351562 22.503906 -20.429688 C 18.984375 -23.261719 17.226562 -25.019531 17.226562 -26.589844 C 17.226562 -27.285156 17.601562 -27.722656 18.480469 -27.722656 C 20.871094 -27.722656 24.140625 -25.710938 24.390625 -22.128906 C 24.515625 -19.613281 28.164062 -19.738281 28.289062 -20.054688 L 30.804688 -26.65625 C 31.746094 -29.042969 23.261719 -31.179688 17.160156 -31.179688 C 8.109375 -31.179688 2.261719 -27.597656 2.261719 -22.191406 C 2.261719 -17.289062 6.160156 -13.957031 9.742188 -10.9375 C 13.453125 -7.859375 15.652344 -5.910156 15.652344 -3.835938 C 15.652344 -2.765625 14.835938 -2.199219 13.703125 -2.199219 C 11.503906 -2.199219 8.488281 -4.335938 7.921875 -9.050781 C 7.480469 -12.574219 3.773438 -12.195312 3.710938 -11.945312 Z M 0.753906 -4.335938 "/></g></g></g></svg>